ModelForces
version=1
nRows=6
nColumns=71
inDegrees=no

This file contains the forces exerted on a model during a simulation.

A force is a generalized force, meaning that it can be either a force (N) or a torque (Nm).

Units are S.I. units (second, meters, Newtons, ...)
Angles are in degrees.

endheader
time	semimem_r	semiten_r	bifemlh_r	bifemsh_r	sar_r	grac_r	rect_fem_r	vas_med_r	vas_int_r	vas_lat_r	med_gas_r	lat_gas_r	contactForce_femur_lat_meniscii_l.femur_lat_l.force.X	contactForce_femur_lat_meniscii_l.femur_lat_l.force.Y	contactForce_femur_lat_meniscii_l.femur_lat_l.force.Z	contactForce_femur_lat_meniscii_l.femur_lat_l.torque.X	contactForce_femur_lat_meniscii_l.femur_lat_l.torque.Y	contactForce_femur_lat_meniscii_l.femur_lat_l.torque.Z	contactForce_femur_lat_meniscii_l.meniscus_lat_l.force.X	contactForce_femur_lat_meniscii_l.meniscus_lat_l.force.Y	contactForce_femur_lat_meniscii_l.meniscus_lat_l.force.Z	contactForce_femur_lat_meniscii_l.meniscus_lat_l.torque.X	contactForce_femur_lat_meniscii_l.meniscus_lat_l.torque.Y	contactForce_femur_lat_meniscii_l.meniscus_lat_l.torque.Z	contactForce_femur_med_meniscii_l.femur_med_l.force.X	contactForce_femur_med_meniscii_l.femur_med_l.force.Y	contactForce_femur_med_meniscii_l.femur_med_l.force.Z	contactForce_femur_med_meniscii_l.femur_med_l.torque.X	contactForce_femur_med_meniscii_l.femur_med_l.torque.Y	contactForce_femur_med_meniscii_l.femur_med_l.torque.Z	contactForce_femur_med_meniscii_l.meniscus_med_l.force.X	contactForce_femur_med_meniscii_l.meniscus_med_l.force.Y	contactForce_femur_med_meniscii_l.meniscus_med_l.force.Z	contactForce_femur_med_meniscii_l.meniscus_med_l.torque.X	contactForce_femur_med_meniscii_l.meniscus_med_l.torque.Y	contactForce_femur_med_meniscii_l.meniscus_med_l.torque.Z	contactForce_femur_lat_meniscii_r.femur_lat_r.force.X	contactForce_femur_lat_meniscii_r.femur_lat_r.force.Y	contactForce_femur_lat_meniscii_r.femur_lat_r.force.Z	contactForce_femur_lat_meniscii_r.femur_lat_r.torque.X	contactForce_femur_lat_meniscii_r.femur_lat_r.torque.Y	contactForce_femur_lat_meniscii_r.femur_lat_r.torque.Z	contactForce_femur_lat_meniscii_r.meniscus_lat_r.force.X	contactForce_femur_lat_meniscii_r.meniscus_lat_r.force.Y	contactForce_femur_lat_meniscii_r.meniscus_lat_r.force.Z	contactForce_femur_lat_meniscii_r.meniscus_lat_r.torque.X	contactForce_femur_lat_meniscii_r.meniscus_lat_r.torque.Y	contactForce_femur_lat_meniscii_r.meniscus_lat_r.torque.Z	contactForce_femur_med_meniscii_r.femur_med_r.force.X	contactForce_femur_med_meniscii_r.femur_med_r.force.Y	contactForce_femur_med_meniscii_r.femur_med_r.force.Z	contactForce_femur_med_meniscii_r.femur_med_r.torque.X	contactForce_femur_med_meniscii_r.femur_med_r.torque.Y	contactForce_femur_med_meniscii_r.femur_med_r.torque.Z	contactForce_femur_med_meniscii_r.meniscus_med_r.force.X	contactForce_femur_med_meniscii_r.meniscus_med_r.force.Y	contactForce_femur_med_meniscii_r.meniscus_med_r.force.Z	contactForce_femur_med_meniscii_r.meniscus_med_r.torque.X	contactForce_femur_med_meniscii_r.meniscus_med_r.torque.Y	contactForce_femur_med_meniscii_r.meniscus_med_r.torque.Z	aACL_R	pACL_R	aPCL_R	pPCL_R	aMCL_R	aLCL_R	aPCL_L	pPCL_L	aMCL_L	aLCL_L
      0.00000000	      0.00000000	   2439.50181080	      0.00000000	   2641.82203024	  27005.13163892	  10256.02863158	  10083.28898745	      0.00000000	     26.82441278	      0.00000000	      0.00000000	      0.00000000	      0.27630743	      5.09959794	     -0.95604224	      0.52199749	     -0.00257884	      0.14858179	     -0.27630743	     -5.09959794	      0.95604224	     -0.17463777	      0.00255804	     -0.04830170	     -0.33159939	      2.09761597	     -0.34046892	      0.09447322	     -0.00213861	     -0.10050179	      0.33159939	     -2.09761597	      0.34046892	      0.02807573	      0.00036872	     -0.02975888	     41.01824565	     13.44124698	      0.02831839	     -0.34007199	      1.00899653	     16.68923385	    -41.01824565	    -13.44124698	     -0.02831839	      0.38625080	     -1.18485615	     -0.10640667	     66.08043586	    -50.58414835	     15.71232351	     -7.38692026	     -1.37892365	     26.67876820	    -66.08043586	     50.58414835	    -15.71232351	      0.96741972	      0.64366215	     -2.04773150	      0.00000000	      0.00000000	    801.89986590	    262.34359591	      0.00000000	      0.00000000	      0.00000000	      0.00000000	      0.00000001	      0.00000000
      0.00000301	      0.00000000	   2191.39295615	      0.00000000	   1765.37094756	  11511.29093673	   6196.02878633	   9776.49450158	      0.00000000	     26.91195430	      0.00000000	      0.00000000	      0.00000000	      0.27637555	      5.09917637	     -0.95605936	      0.52199531	     -0.00258063	      0.14860886	     -0.27637555	     -5.09917637	      0.95605936	     -0.17462727	      0.00256009	     -0.04830202	     -0.33166534	      2.09747058	     -0.34047236	      0.09447824	     -0.00214026	     -0.10053239	      0.33166534	     -2.09747058	      0.34047236	      0.02807263	      0.00037009	     -0.02975351	     40.78560061	     13.66215787	      0.04774629	     -0.35348060	      1.00357031	     16.59088478	    -40.78560061	    -13.66215787	     -0.04774629	      0.39293148	     -1.17899758	     -0.09353916	     65.18179331	    -51.09213152	     15.91744794	     -7.48052780	     -1.35711608	     26.32596402	    -65.18179331	     51.09213152	    -15.91744794	      0.97787099	      0.61977212	     -2.06438896	      0.00000000	      0.00000000	    802.64045885	    264.19939570	      0.00000000	      0.00000000	      0.00282445	      0.00000000	      0.02309446	      0.00000000
      0.00000601	      0.00000000	   1974.76648018	      0.00000000	   1197.36434967	   6559.71072830	   4235.86974955	   9480.92690049	      0.00000000	     26.99894716	      0.00000000	      0.00000000	      0.00000000	      0.27644278	      5.09874984	     -0.95607520	      0.52199248	     -0.00258241	      0.14863552	     -0.27644278	     -5.09874984	      0.95607520	     -0.17461658	      0.00256213	     -0.04830227	     -0.33173132	      2.09732333	     -0.34047520	      0.09448304	     -0.00214192	     -0.10056303	      0.33173132	     -2.09732333	      0.34047520	      0.02806952	      0.00037148	     -0.02974810	     40.49675091	     13.91976541	      0.06904699	     -0.36856271	      0.99679816	     16.46898836	    -40.49675091	    -13.91976541	     -0.06904699	      0.40070285	     -1.17160726	     -0.07825686	     64.02434488	    -51.76833748	     16.16880256	     -7.59651025	     -1.32916024	     25.87177415	    -64.02434488	     51.76833748	    -16.16880256	      0.99172640	      0.58950476	     -2.08669647	      0.00000000	      0.00000000	    803.57440262	    266.53826255	      0.00000000	      0.00000000	      0.00565137	      0.00000000	      0.04617452	      0.00000000
      0.00001490	      0.00000000	   1472.55595700	      0.00000000	    407.12232397	   1597.96539756	   1675.80074315	   8666.46472740	      0.00000000	     27.25240484	      0.00000000	      0.00000000	      0.00000000	      0.27663629	      5.09746043	     -0.95611453	      0.52198025	     -0.00258758	      0.14871196	     -0.27663629	     -5.09746043	      0.95611453	     -0.17458392	      0.00256804	     -0.04830261	     -0.33192647	      2.09687739	     -0.34048007	      0.09449601	     -0.00214689	     -0.10065386	      0.33192647	     -2.09687739	      0.34048007	      0.02806026	      0.00037564	     -0.02973191	     39.56795041	     14.70974902	      0.13250012	     -0.41405213	      0.97496197	     16.07751785	    -39.56795041	    -14.70974902	     -0.13250012	      0.42451050	     -1.14763793	     -0.03071298	     60.24758408	    -53.99671843	     16.96121804	     -7.96445522	     -1.23821258	     24.38998876	    -60.24758408	     53.99671843	    -16.96121804	      1.03729555	      0.49181627	     -2.16035394	      0.00000000	      0.00000000	    806.61382528	    274.13992887	      0.00000000	      0.00000000	      0.01401967	      0.00000000	      0.11429548	      0.00000000
      0.00003289	      0.00000000	    848.05711666	      0.00000000	    112.52480592	      0.00000000	    314.68038815	   7241.18985991	      0.00000000	     27.74901776	      0.00000000	      0.00000000	      0.00000000	      0.27700468	      5.09471637	     -0.95615999	      0.52193787	     -0.00259765	      0.14885601	     -0.27700468	     -5.09471637	      0.95615999	     -0.17451278	      0.00257956	     -0.04830145	     -0.33232255	      2.09592472	     -0.34047389	      0.09451666	     -0.00215723	     -0.10083903	      0.33232255	     -2.09592472	      0.34047389	      0.02804114	      0.00038437	     -0.02969816	     37.83750843	     16.09845780	      0.24382310	     -0.49393716	      0.93420298	     15.34922749	    -37.83750843	    -16.09845780	     -0.24382310	      0.46636851	     -1.10270565	      0.05440779	     53.27279082	    -58.06351413	     18.36782137	     -8.62028595	     -1.07066952	     21.65307649	    -53.27279082	     58.06351413	    -18.36782137	      1.12040772	      0.31346868	     -2.29456381	      0.00000000	      0.00000000	    812.36725203	    288.47881577	      0.00000000	      0.00000000	      0.03103538	      0.00000000	      0.25189499	      0.00000000
      0.00005469	      0.00000000	    455.67634866	      0.00000000	     66.11917136	      0.00000000	     48.36677159	   5828.74514382	      0.00000000	     28.32365172	      0.00000000	      0.00000000	      0.00000000	      0.27740869	      5.09115573	     -0.95615385	      0.52185504	     -0.00260913	      0.14901121	     -0.27740869	     -5.09115573	      0.95615385	     -0.17441771	      0.00259272	     -0.04829673	     -0.33280367	      2.09468238	     -0.34043765	      0.09453160	     -0.00217026	     -0.10106544	      0.33280367	     -2.09468238	      0.34043765	      0.02801734	      0.00039547	     -0.02965557	     36.58961423	     17.42908576	      0.39620507	     -0.58915500	      0.90573397	     14.81904879	    -36.58961423	    -17.42908576	     -0.39620507	      0.50710029	     -1.07330668	      0.13025395	     46.79121209	    -61.71024614	     19.60903899	     -9.20050360	     -0.91523271	     19.10848994	    -46.79121209	     61.71024614	    -19.60903899	      1.19499797	      0.14990465	     -2.41421296	      0.00000000	      0.00000000	    818.02540647	    302.48748301	      0.00000000	      0.00000000	      0.05176333	      0.00000000	      0.41789540	      0.00000000
